<?xml version="1.0" encoding="UTF-8"?>
<svg width="1000px" height="600px" viewBox="0 0 1000 600" version="1.1" xmlns="http://www.w3.org/2000/svg" xmlns:xlink="http://www.w3.org/1999/xlink">
    <title>Slice</title>
    <g id="Page-1" stroke="none" stroke-width="1" fill="none" fill-rule="evenodd">
        <rect id="Rectangle" fill="#F4F4F4" x="0" y="0" width="1000" height="600"></rect>
        <g id="newspaper-solid" transform="translate(293.000000, 119.000000)" fill="#D8D8D8" fill-rule="nonzero">
            <path d="M77.8125,51.8571429 C77.8125,23.2546875 101.075195,0 129.6875,0 L363.125,0 C391.737305,0 415,23.2546875 415,51.8571429 L415,311.142857 C415,339.745313 391.737305,363 363.125,363 L64.84375,363 C29.0175781,363 0,333.992411 0,298.178571 L0,77.7857143 C0,63.4439732 11.5908203,51.8571429 25.9375,51.8571429 C40.2841797,51.8571429 51.875,63.4439732 51.875,77.7857143 L51.875,298.178571 C51.875,305.308929 57.7109375,311.142857 64.84375,311.142857 C71.9765625,311.142857 77.8125,305.308929 77.8125,298.178571 L77.8125,51.8571429 Z M129.6875,71.3035714 L129.6875,136.125 C129.6875,146.901563 138.360352,155.571429 149.140625,155.571429 L239.921875,155.571429 C250.702148,155.571429 259.375,146.901563 259.375,136.125 L259.375,71.3035714 C259.375,60.5270089 250.702148,51.8571429 239.921875,51.8571429 L149.140625,51.8571429 C138.360352,51.8571429 129.6875,60.5270089 129.6875,71.3035714 Z M298.28125,64.8214286 C298.28125,71.9517857 304.117188,77.7857143 311.25,77.7857143 L350.15625,77.7857143 C357.289062,77.7857143 363.125,71.9517857 363.125,64.8214286 C363.125,57.6910714 357.289062,51.8571429 350.15625,51.8571429 L311.25,51.8571429 C304.117188,51.8571429 298.28125,57.6910714 298.28125,64.8214286 Z M298.28125,142.607143 C298.28125,149.7375 304.117188,155.571429 311.25,155.571429 L350.15625,155.571429 C357.289062,155.571429 363.125,149.7375 363.125,142.607143 C363.125,135.476786 357.289062,129.642857 350.15625,129.642857 L311.25,129.642857 C304.117188,129.642857 298.28125,135.476786 298.28125,142.607143 Z M129.6875,220.392857 C129.6875,227.523214 135.523438,233.357143 142.65625,233.357143 L350.15625,233.357143 C357.289062,233.357143 363.125,227.523214 363.125,220.392857 C363.125,213.2625 357.289062,207.428571 350.15625,207.428571 L142.65625,207.428571 C135.523438,207.428571 129.6875,213.2625 129.6875,220.392857 Z M129.6875,298.178571 C129.6875,305.308929 135.523438,311.142857 142.65625,311.142857 L350.15625,311.142857 C357.289062,311.142857 363.125,305.308929 363.125,298.178571 C363.125,291.048214 357.289062,285.214286 350.15625,285.214286 L142.65625,285.214286 C135.523438,285.214286 129.6875,291.048214 129.6875,298.178571 Z" id="Shape"></path>
        </g>
    </g>
</svg>